<svg width="323" height="323" viewBox="0 0 323 323" fill="none" xmlns="http://www.w3.org/2000/svg">
<circle cx="161.5" cy="161.5" r="156.5" fill="#232323" stroke="white" stroke-width="10"/>
<path d="M212.725 127.651C212.554 127.256 212.164 127 211.734 127H110.081C109.65 127 109.26 127.256 109.089 127.651C108.918 128.046 108.998 128.506 109.292 128.82L113.146 132.93V137.755C113.146 138.352 113.63 138.836 114.227 138.836H115.772V194.441H115.194C114.597 194.441 114.113 194.925 114.113 195.522V204.919C114.113 205.516 114.597 206 115.194 206H206.62C207.217 206 207.701 205.516 207.701 204.919V195.522C207.701 194.925 207.217 194.441 206.62 194.441H206.043V138.836H207.588C208.184 138.836 208.668 138.352 208.668 137.755V132.931L212.522 128.82C212.817 128.506 212.897 128.047 212.725 127.651ZM126.966 203.838H116.275V196.602H126.966V203.838ZM122.544 142.843V194.441H117.933V142.843H122.544ZM117.933 140.682V138.836H122.544V140.682H117.933ZM192.687 203.838H129.128V200.748H192.687V203.838ZM183.32 164.955V198.587H181.104V170.921C181.104 170.324 180.62 169.84 180.023 169.84H141.791C141.195 169.84 140.711 170.324 140.711 170.921V198.587H138.494V164.955H183.32ZM141.109 162.794V151.135H144.913V162.794H141.109ZM147.074 162.794V151.135H150.878V162.794H147.074ZM153.04 162.794V151.135H156.843V162.794H153.04ZM159.005 162.794V151.135H162.809V162.794H159.005ZM164.971 162.794V151.135H168.775V162.794H164.971ZM170.936 162.794V151.135H174.74V162.794H170.936ZM176.902 162.794V151.135H180.706V162.794H176.902ZM182.867 160.978V151.135H191.4L182.867 160.978ZM152.795 198.587H147.925V195.84H152.795V198.587ZM159.826 198.587H154.956V195.84H159.826V198.587ZM166.858 198.587H161.988V195.84H166.858V198.587ZM173.889 198.587H169.019V195.84H173.889V198.587ZM177.034 193.678H144.78C144.183 193.678 143.699 194.162 143.699 194.759C143.699 195.356 144.183 195.84 144.78 195.84H145.763V198.587H142.873V172.002H178.942V198.587H176.051V195.84H177.035C177.631 195.84 178.115 195.356 178.115 194.759C178.115 194.162 177.631 193.678 177.034 193.678ZM138.947 160.978L130.414 151.135H138.947V160.978ZM137.66 162.794H129.128V152.951L137.66 162.794ZM136.333 164.955V168.759H129.128V164.955H136.333ZM136.333 170.921V174.725H129.128V170.921H136.333ZM136.333 176.886V180.69H129.128V176.886H136.333ZM136.333 182.851V186.656H129.128V182.851H136.333ZM136.333 188.817V192.621H129.128V188.817H136.333ZM136.333 194.783V198.587H129.128V194.783H136.333ZM192.687 198.587H185.482V194.783H192.687V198.587ZM192.687 192.621H185.482V188.817H192.687V192.621ZM192.687 186.656H185.482V182.851H192.687V186.656ZM192.687 180.69H185.482V176.886H192.687V180.69ZM192.687 174.724H185.482V170.921H192.687V174.724ZM192.687 168.759H185.482V164.955H192.687V168.759ZM192.687 162.794H184.154L192.687 152.951V162.794ZM193.768 148.974H128.047C127.45 148.974 126.966 149.458 126.966 150.055V194.441H124.705V138.836H197.109V194.441H194.849V150.055C194.849 149.458 194.365 148.974 193.768 148.974ZM205.539 203.838H194.848V196.602H205.539V203.838ZM203.881 142.843V194.441H199.271V142.843H203.881ZM199.271 140.682V138.836H203.881V140.682H199.271ZM206.507 136.674H115.308V133.584H206.507V136.674ZM207.119 131.422H114.695L112.576 129.162H209.239L207.119 131.422Z" fill="white"/>
</svg>
