<svg width="323" height="323" viewBox="0 0 323 323" fill="none" xmlns="http://www.w3.org/2000/svg">
<circle cx="161.5" cy="161.5" r="156.5" fill="#F63838" stroke="white" stroke-width="10"/>
<path d="M204.517 150.7H191.167V137.35C191.167 136.957 191.01 136.579 190.732 136.301C190.454 136.023 190.077 135.867 189.683 135.867H173.367V125.483C173.367 125.09 173.21 124.713 172.932 124.434C172.654 124.156 172.277 124 171.883 124H118.483C118.09 124 117.713 124.156 117.434 124.434C117.156 124.713 117 125.09 117 125.483V211.517C117 211.91 117.156 212.287 117.434 212.566C117.713 212.844 118.09 213 118.483 213H204.517C204.91 213 205.287 212.844 205.566 212.566C205.844 212.287 206 211.91 206 211.517V152.183C206 151.79 205.844 151.413 205.566 151.134C205.287 150.856 204.91 150.7 204.517 150.7ZM191.167 153.667V165.533H173.367V153.667H191.167ZM180.783 180.367H162.983V168.5H180.783V180.367ZM191.167 183.333V195.2H173.367V183.333H191.167ZM142.217 180.367V168.5H160.017V180.367H142.217ZM149.633 183.333V195.2H131.833V183.333H149.633ZM131.833 165.533V153.667H149.633V165.533H131.833ZM152.6 165.533V153.667H170.4V165.533H152.6ZM152.6 183.333H170.4V195.2H152.6V183.333ZM119.967 126.967H170.4V135.867H119.967V126.967ZM119.967 138.833H188.2V150.7H119.967V138.833ZM119.967 153.667H128.867V165.533H119.967V153.667ZM119.967 168.5H139.25V180.367H119.967V168.5ZM119.967 183.333H128.867V195.2H119.967V183.333ZM139.25 210.033H119.967V198.167H139.25V210.033ZM160.017 210.033H142.217V198.167H160.017V210.033ZM180.783 210.033H162.983V198.167H180.783V210.033ZM203.033 210.033H183.75V198.167H203.033V210.033ZM203.033 195.2H194.133V183.333H203.033V195.2ZM203.033 180.367H183.75V168.5H203.033V180.367ZM203.033 165.533H194.133V153.667H203.033V165.533Z" fill="white"/>
</svg>
