<svg width="323" height="323" viewBox="0 0 323 323" fill="none" xmlns="http://www.w3.org/2000/svg">
<circle cx="161.5" cy="161.5" r="156.5" fill="#F63838" stroke="white" stroke-width="10"/>
<path d="M201.702 171.397C202.007 171.626 202.373 171.743 202.74 171.743C203.004 171.743 203.268 171.682 203.513 171.56C204.098 171.268 204.469 170.669 204.469 170.014V163.07C204.469 162.526 204.213 162.014 203.778 161.687L195.75 155.663C195.751 155.641 195.753 155.619 195.753 155.597V140.741C195.753 139.786 194.979 139.012 194.024 139.012H182.05C181.095 139.012 180.321 139.786 180.321 140.741V144.085L162.289 130.553C161.674 130.091 160.828 130.091 160.213 130.553L118.725 161.687C118.289 162.014 118.034 162.526 118.034 163.07V170.014C118.034 170.669 118.404 171.267 118.989 171.56C119.575 171.853 120.276 171.79 120.8 171.396L121.491 170.878V206.341H119.614C118.659 206.341 117.885 207.115 117.885 208.07C117.885 209.025 118.659 209.799 119.614 209.799H202.735C203.69 209.799 204.464 209.025 204.464 208.07C204.464 207.115 203.69 206.341 202.735 206.341H201.011V170.878L201.702 171.397ZM183.778 142.47H192.296V153.071L183.778 146.679V142.47ZM121.491 163.934L161.251 134.097L201.011 163.934V166.555L162.289 137.497C161.981 137.266 161.616 137.15 161.251 137.15C160.886 137.15 160.521 137.266 160.213 137.497L121.491 166.555V163.934ZM168.026 206.342H154.323C154.329 206.285 154.332 206.228 154.332 206.171V177.116H168.017V206.171C168.017 206.228 168.02 206.285 168.026 206.342ZM197.554 168.654V206.341H171.466C171.472 206.285 171.475 206.228 171.475 206.17V175.387C171.475 174.432 170.701 173.658 169.746 173.658H152.603C151.648 173.658 150.874 174.432 150.874 175.387V206.171C150.874 206.228 150.877 206.285 150.883 206.342H124.948V168.654C124.948 168.536 124.936 168.421 124.914 168.309L161.251 141.04L197.588 168.309C197.566 168.421 197.554 168.536 197.554 168.654Z" fill="white"/>
<path d="M127.638 130.638C126.667 131.609 126.133 132.9 126.133 134.273C126.133 135.645 126.667 136.936 127.638 137.907C128.609 138.878 129.9 139.413 131.273 139.413C132.646 139.413 133.937 138.878 134.907 137.907C135.878 136.936 136.413 135.645 136.413 134.272C136.413 132.899 135.878 131.609 134.907 130.638C133.937 129.667 132.646 129.132 131.273 129.132C129.9 129.132 128.609 129.667 127.638 130.638V130.638ZM134.165 134.272C134.165 135.045 133.864 135.771 133.318 136.318C132.772 136.864 132.045 137.165 131.273 137.165C130.5 137.165 129.774 136.864 129.227 136.318C128.681 135.771 128.38 135.045 128.38 134.272C128.38 133.5 128.681 132.773 129.227 132.227C129.774 131.681 130.5 131.38 131.273 131.38C132.045 131.38 132.772 131.681 133.318 132.227C133.864 132.774 134.165 133.5 134.165 134.272Z" fill="white"/>
<path d="M135.493 128.459L138.444 125.508L140.033 127.097L137.082 130.048L135.493 128.459Z" fill="white"/>
<path d="M138.371 133.149H142.545V135.396H138.371V133.149Z" fill="white"/>
<path d="M135.492 140.087L137.081 138.498L140.032 141.449L138.443 143.038L135.492 140.087Z" fill="white"/>
<path d="M130.149 141.371H132.397V145.545H130.149V141.371Z" fill="white"/>
<path d="M122.503 141.447L125.454 138.496L127.043 140.085L124.092 143.036L122.503 141.447Z" fill="white"/>
<path d="M120 133.149H124.174V135.396H120V133.149Z" fill="white"/>
<path d="M122.504 127.096L124.093 125.507L127.044 128.458L125.455 130.047L122.504 127.096Z" fill="white"/>
<path d="M130.149 123H132.397V127.174H130.149V123Z" fill="white"/>
<path d="M218.838 179.861L221.341 182.792C219.041 185.485 219.041 189.868 221.341 192.561L218.838 195.491C215.157 191.182 215.157 184.171 218.838 179.861Z" fill="white"/>
<path d="M224.573 182L226 184.062C224.689 185.958 224.689 189.042 226 190.938L224.573 193C222.476 189.967 222.476 185.033 224.573 182Z" fill="white"/>
<path d="M213.831 174L216.334 176.931C211.273 182.856 211.273 192.497 216.334 198.422L213.831 201.352C207.39 193.811 207.39 181.541 213.831 174Z" fill="white"/>
</svg>
