<svg width="323" height="323" viewBox="0 0 323 323" fill="none" xmlns="http://www.w3.org/2000/svg">
<circle cx="161.5" cy="161.5" r="156.5" fill="#F63838" stroke="white" stroke-width="10"/>
<path d="M200.856 170.192C201.169 170.427 201.543 170.546 201.919 170.546C202.189 170.546 202.46 170.485 202.711 170.359C203.311 170.06 203.69 169.446 203.69 168.776V161.663C203.69 161.106 203.427 160.581 202.982 160.247L194.759 154.076C194.76 154.053 194.762 154.031 194.762 154.008V138.791C194.762 137.813 193.969 137.02 192.992 137.02H180.725C179.747 137.02 178.955 137.813 178.955 138.791V142.216L160.484 128.354C159.854 127.882 158.988 127.882 158.358 128.354L115.86 160.246C115.414 160.581 115.152 161.105 115.152 161.663V168.775C115.152 169.446 115.531 170.059 116.131 170.359C116.731 170.659 117.449 170.595 117.986 170.192L118.694 169.66V205.987H116.771C115.793 205.987 115 206.78 115 207.758C115 208.735 115.793 209.528 116.771 209.528H201.914C202.892 209.528 203.685 208.735 203.685 207.758C203.685 206.78 202.892 205.987 201.914 205.987H200.148V169.66L200.856 170.192ZM182.496 140.561H191.221V151.421L182.496 144.873V140.561ZM118.694 162.548L159.421 131.985L200.148 162.548V165.233L160.484 135.467C160.169 135.231 159.795 135.113 159.421 135.113C159.047 135.113 158.673 135.231 158.358 135.467L118.694 165.233V162.548ZM166.361 205.987H152.325C152.33 205.929 152.333 205.871 152.333 205.812V176.05H166.352V205.812C166.352 205.871 166.355 205.929 166.361 205.987ZM196.607 167.383V205.987H169.884C169.89 205.929 169.893 205.871 169.893 205.811V174.279C169.893 173.302 169.1 172.509 168.122 172.509H150.563C149.585 172.509 148.792 173.302 148.792 174.279V205.812C148.792 205.871 148.795 205.929 148.801 205.987H122.235V167.383C122.235 167.262 122.223 167.144 122.2 167.029L159.421 139.097L196.642 167.029C196.619 167.144 196.607 167.262 196.607 167.383Z" fill="white"/>
<path d="M155.91 190.026C155.445 190.026 154.989 190.217 154.66 190.544C154.33 190.874 154.142 191.332 154.142 191.797C154.142 192.264 154.33 192.72 154.66 193.05C154.989 193.38 155.446 193.568 155.91 193.568C156.377 193.568 156.833 193.38 157.163 193.05C157.493 192.72 157.683 192.264 157.683 191.797C157.683 191.332 157.493 190.876 157.163 190.544C156.833 190.217 156.378 190.026 155.91 190.026Z" fill="white"/>
<path d="M150.466 158.213C150.466 163.108 154.448 167.09 159.342 167.09C164.237 167.09 168.219 163.108 168.219 158.213C168.219 153.319 164.237 149.337 159.342 149.337C154.448 149.337 150.466 153.319 150.466 158.213ZM159.342 163.549C157.021 163.549 155.043 162.058 154.311 159.984H164.374C163.642 162.058 161.664 163.549 159.342 163.549ZM164.374 156.443H154.311C155.043 154.369 157.021 152.878 159.342 152.878C161.664 152.878 163.642 154.369 164.374 156.443Z" fill="white"/>
<path d="M143.516 193.695V174.28C143.516 173.302 142.723 172.509 141.746 172.509H129.323C128.345 172.509 127.552 173.302 127.552 174.28V193.696C126.598 193.723 125.832 194.503 125.832 195.464C125.832 196.442 126.625 197.235 127.603 197.235H129.323H141.746H143.484C144.462 197.235 145.255 196.442 145.255 195.464C145.255 194.497 144.479 193.712 143.516 193.695ZM139.975 176.05V179.592H131.093V176.05H139.975ZM131.093 193.693V183.133H139.975V193.693H131.093V193.693Z" fill="white"/>
<path d="M175.367 197.235H177.096H189.519H191.248C192.226 197.235 193.019 196.442 193.019 195.464C193.019 194.5 192.248 193.718 191.29 193.695V174.28C191.29 173.302 190.497 172.509 189.519 172.509H177.096C176.118 172.509 175.325 173.302 175.325 174.28V193.695C174.367 193.718 173.596 194.5 173.596 195.464C173.596 196.442 174.389 197.235 175.367 197.235ZM178.867 193.693V183.133H187.748V193.693H178.867V193.693ZM187.748 176.05V179.592H178.867V176.05H187.748Z" fill="white"/>
</svg>
