<svg width="242" height="448" viewBox="0 0 242 448" fill="none" xmlns="http://www.w3.org/2000/svg">
<path d="M232.857 0.379253L174.82 0.286133C109.617 0.286133 67.4798 43.5173 67.4798 110.429V161.212H9.12582C4.08334 161.212 0 165.3 0 170.343V243.922C0 248.964 4.088 253.048 9.12582 253.048H67.4798V438.712C67.4798 443.754 71.5631 447.837 76.6056 447.837H152.741C157.783 447.837 161.867 443.749 161.867 438.712V253.048H230.096C235.139 253.048 239.222 248.964 239.222 243.922L239.25 170.343C239.25 167.922 238.286 165.603 236.577 163.89C234.869 162.176 232.541 161.212 230.119 161.212H161.867V118.163C161.867 97.4714 166.797 86.9674 193.751 86.9674L232.848 86.9534C237.886 86.9534 241.969 82.8654 241.969 77.8276V9.50506C241.969 4.4719 237.89 0.388565 232.857 0.379253Z" fill="white"/>
</svg>
