<svg width="110" height="22" viewBox="0 0 110 22" fill="none" xmlns="http://www.w3.org/2000/svg">
<path d="M16.384 17.705C16.384 18.0623 16.259 18.366 16.009 18.616L14.188 20.437C13.938 20.687 13.6343 20.812 13.277 20.812C12.9197 20.812 12.616 20.687 12.366 20.437L8.42799 16.499L4.48998 20.437C4.23998 20.687 3.93632 20.812 3.57898 20.812C3.22165 20.812 2.91798 20.687 2.66798 20.437L0.846985 18.616C0.596985 18.366 0.471985 18.0623 0.471985 17.705C0.471985 17.3477 0.596985 17.044 0.846985 16.794L4.78498 12.856L0.846985 8.91798C0.596985 8.66798 0.471985 8.36432 0.471985 8.00698C0.471985 7.64965 0.596985 7.34598 0.846985 7.09598L2.66798 5.27498C2.91798 5.02498 3.22165 4.89998 3.57898 4.89998C3.93632 4.89998 4.23998 5.02498 4.48998 5.27498L8.42799 9.21299L12.366 5.27498C12.616 5.02498 12.9197 4.89998 13.277 4.89998C13.6343 4.89998 13.938 5.02498 14.188 5.27498L16.009 7.09598C16.259 7.34598 16.384 7.64965 16.384 8.00698C16.384 8.36432 16.259 8.66798 16.009 8.91798L12.071 12.856L16.009 16.794C16.259 17.044 16.384 17.3477 16.384 17.705ZM56.938 21.067L48.206 12.348C47.8753 12.0173 47.71 11.6133 47.71 11.136C47.71 10.6587 47.8753 10.2547 48.206 9.92398L56.938 1.20498C57.2687 0.874318 57.6727 0.708984 58.15 0.708984C58.6273 0.708984 59.0313 0.874318 59.362 1.20498L60.366 2.20898C60.6967 2.53965 60.862 2.94365 60.862 3.42098C60.862 3.89832 60.6967 4.30232 60.366 4.63298L53.857 11.142L60.366 17.638C60.6967 17.9773 60.862 18.3837 60.862 18.857C60.862 19.3303 60.6967 19.732 60.366 20.062L59.362 21.066C59.0313 21.3967 58.6273 21.562 58.15 21.562C57.6727 21.562 57.2687 21.3967 56.938 21.066V21.067ZM109.719 11.143C109.719 11.607 109.554 12.0133 109.223 12.362L100.491 21.081C100.16 21.4117 99.7587 21.577 99.286 21.577C98.8133 21.577 98.4117 21.4117 98.081 21.081L97.063 20.077C96.7323 19.729 96.567 19.3227 96.567 18.858C96.567 18.3847 96.7323 17.983 97.063 17.653L103.572 11.144L97.063 4.64798C96.7323 4.29998 96.567 3.89365 96.567 3.42898C96.567 2.95565 96.7323 2.55398 97.063 2.22398L98.081 1.21998C98.4023 0.880651 98.804 0.710984 99.286 0.710984C99.768 0.710984 100.17 0.880651 100.491 1.21998L109.223 9.93898C109.554 10.2697 109.719 10.6713 109.719 11.144V11.143Z" fill="white"/>
</svg>
