<svg width="512" height="512" viewBox="0 0 512 512" fill="none" xmlns="http://www.w3.org/2000/svg">
<path d="M255.996 0C114.615 0 0 114.617 0 255.997C0 397.374 114.615 512 255.996 512C397.377 512 512 397.374 512 255.997C512 114.617 397.377 0 255.996 0ZM256.001 89.9183L407.492 184.383H104.509L256.001 89.9183ZM409.38 335.232H409.364C409.364 350.384 397.085 362.662 381.934 362.662H130.067C114.915 362.662 102.637 350.382 102.637 335.232V190.394C102.637 188.792 102.801 187.233 103.067 185.703L247.809 275.957C247.986 276.068 248.176 276.143 248.358 276.246C248.549 276.351 248.744 276.454 248.939 276.551C249.961 277.078 251.014 277.503 252.091 277.782C252.202 277.812 252.313 277.826 252.424 277.852C253.605 278.13 254.801 278.304 255.996 278.304H256.004C256.013 278.304 256.021 278.304 256.021 278.304C257.216 278.304 258.412 278.135 259.593 277.852C259.704 277.824 259.815 277.812 259.926 277.782C261.001 277.503 262.051 277.078 263.078 276.551C263.273 276.454 263.468 276.351 263.659 276.246C263.84 276.143 264.031 276.068 264.208 275.957L408.95 185.703C409.216 187.233 409.38 188.788 409.38 190.394V335.232Z" fill="white"/>
</svg>
