<svg width="854" height="854" viewBox="0 0 854 854" fill="none" xmlns="http://www.w3.org/2000/svg">
<circle cx="427" cy="427" r="419.5" fill="#E3E5E6" stroke="#FF4F4F" stroke-width="15"/>
<path d="M275.99 192C218.649 192 172 238.649 172 295.99C172 353.331 218.649 399.98 275.99 399.98C333.331 399.98 379.98 353.331 379.98 295.99C379.98 238.649 333.331 192 275.99 192ZM275.99 377.25C231.182 377.25 194.73 340.798 194.73 295.99C194.73 251.184 231.182 214.73 275.99 214.73C320.798 214.73 357.25 251.184 357.25 295.99C357.25 340.798 320.798 377.25 275.99 377.25Z" fill="#FF4F4F"/>
<path d="M284.991 296.115V252.531C284.991 247.664 281.048 243.721 276.183 243.721C271.317 243.721 267.373 247.664 267.373 252.531V298.93C267.373 299.068 267.407 299.198 267.414 299.337C267.298 301.732 268.123 304.165 269.953 305.995L302.764 338.803C306.205 342.245 311.783 342.245 315.222 338.803C318.661 335.362 318.663 329.784 315.222 326.345L284.991 296.115Z" fill="#FF4F4F"/>
<path d="M242.484 544.393H365.829V614.876H242.484V544.393Z" fill="#50585E"/>
<path d="M453.934 475.496V526.771H577.279V456.287H544.152L453.934 475.496Z" fill="#50585E"/>
<path d="M360.542 456.287H312.967V526.771H436.312V479.196L380.101 491.176C378.71 491.453 377.294 491.601 375.871 491.617C368.69 491.535 362.07 487.726 358.386 481.562C354.702 475.398 354.483 467.761 357.809 461.398L360.542 456.287Z" fill="#50585E"/>
<path d="M189.622 491.531H172V526.771H295.345V456.287H172V473.909H189.622C194.487 473.909 198.433 477.854 198.433 482.72C198.433 487.585 194.487 491.531 189.622 491.531ZM224.862 473.909H260.105C264.971 473.909 268.912 477.854 268.912 482.72C268.912 487.585 264.971 491.531 260.105 491.531H224.862C219.996 491.531 216.051 487.585 216.051 482.72C216.051 477.854 219.996 473.909 224.862 473.909Z" fill="#50585E"/>
<path d="M383.451 544.393H506.796V614.876H383.451V544.393Z" fill="#50585E"/>
<path d="M470.761 408.712C467.993 408.693 465.388 407.39 463.712 405.188C460.808 401.293 461.595 395.78 465.474 392.852L501.86 365.542L462.039 312.502C461.486 311.737 460.605 311.281 459.657 311.27H459.482C458.804 311.316 458.203 311.718 457.899 312.326L373.318 469.679C372.862 470.681 372.987 471.854 373.65 472.736C374.308 473.617 375.4 474.065 376.488 473.909L551.287 436.728C551.973 436.665 552.542 436.166 552.698 435.496C553.045 434.572 552.878 433.531 552.258 432.763L512.433 379.636L476.047 406.95C474.515 408.077 472.663 408.693 470.761 408.712Z" fill="#50585E"/>
<path d="M524.414 544.393H647.763V614.876H524.414V544.393Z" fill="#50585E"/>
<path d="M453.934 632.494H577.279V702.978H453.934V632.494Z" fill="#50585E"/>
<path d="M172 632.494H295.345V702.978H172V632.494Z" fill="#50585E"/>
<path d="M312.967 632.494H436.312V702.978H312.967V632.494Z" fill="#50585E"/>
<path d="M672.783 202.549C664.004 190.903 647.466 188.541 635.778 197.262L563.091 251.8C559.212 254.728 558.425 260.237 561.329 264.135L569.084 274.443L550.756 288.186C542.565 294.311 537.996 304.143 538.6 314.354L539.481 330.213C539.711 334.525 537.758 338.662 534.284 341.223L501.859 365.543L512.432 379.636L544.854 355.321C553.045 349.231 557.614 339.43 557.013 329.243L556.132 313.383C555.918 309.052 557.867 304.892 561.329 302.284L579.657 288.537L587.407 298.845C588.834 300.697 590.916 301.929 593.224 302.284C593.629 302.358 594.043 302.389 594.456 302.369C596.362 302.365 598.218 301.749 599.742 300.607L672.429 246.073C684.101 237.313 686.468 220.747 677.715 209.067L672.783 202.549ZM661.856 231.975L596.218 281.227L588.468 270.919L580.713 260.611L646.351 211.359C650.245 208.447 655.762 209.235 658.686 213.122L663.618 219.64C665.033 221.5 665.637 223.851 665.294 226.163C664.959 228.478 663.723 230.568 661.856 231.975Z" fill="#50585E"/>
</svg>
