<svg width="854" height="854" viewBox="0 0 854 854" fill="none" xmlns="http://www.w3.org/2000/svg">
<circle cx="427" cy="427" r="419.5" fill="#E3E5E6" stroke="#FF4F4F" stroke-width="15"/>
<path d="M369.547 599.566C374.955 626.126 398.491 646.175 426.623 646.175C454.756 646.175 478.292 626.126 483.7 599.566H369.547Z" fill="#50585E"/>
<path d="M414.985 576.292V552.988H438.261V576.292H483.7C478.292 549.732 454.756 529.684 426.623 529.684C398.491 529.684 374.955 549.732 369.547 576.292H414.985Z" fill="#50585E"/>
<path d="M601.971 470.818H251.276H228V704.394H625.247V470.818H601.971ZM426.624 506.406C471.576 506.406 508.146 542.977 508.146 587.929C508.146 632.88 471.575 669.451 426.624 669.451C381.672 669.451 345.101 632.88 345.101 587.929C345.101 542.977 381.672 506.406 426.624 506.406Z" fill="#50585E"/>
<path d="M461.557 447.543V412.592H625.247V366.002H228V412.592H391.691V447.543H461.557Z" fill="#FF4F4F"/>
<path d="M433.998 149H534.998V207H433.998V149Z" fill="#50585E"/>
<path d="M433.998 221H535.998V279H433.998V221Z" fill="#50585E"/>
<path d="M309.996 220H411.996V279H309.996V220Z" fill="#50585E"/>
<path d="M492.998 292.998H593.998V351.998H492.998V292.998Z" fill="#50585E"/>
<path d="M259.998 292.998H361.998V351.998H259.998V292.998Z" fill="#50585E"/>
<path d="M375.998 292.998H477.998V351.998H375.998V292.998Z" fill="#50585E"/>
</svg>
