<svg width="854" height="854" viewBox="0 0 854 854" fill="none" xmlns="http://www.w3.org/2000/svg">
<circle cx="427" cy="427" r="419.5" fill="#E3E5E6" stroke="#FF4F4F" stroke-width="15"/>
<path d="M274.204 228.811C250.268 228.811 230.794 209.48 230.794 185.717C230.794 181.23 227.155 177.59 222.666 177.59C218.177 177.59 214.538 181.23 214.538 185.717C214.538 209.48 195.064 228.811 171.128 228.811C166.638 228.811 163 232.451 163 236.938C163 241.428 166.638 245.066 171.128 245.066C195.064 245.066 214.538 264.458 214.538 288.293C214.538 292.78 218.177 296.42 222.666 296.42C227.155 296.42 230.794 292.78 230.794 288.293C230.794 264.458 250.268 245.066 274.204 245.066C278.694 245.066 282.332 241.428 282.332 236.938C282.332 232.451 278.694 228.811 274.204 228.811Z" fill="#FF4F4F"/>
<path d="M311.464 213.165C329.067 213.165 343.39 227.378 343.39 244.846C343.39 249.333 347.028 252.974 351.517 252.974C356.007 252.974 359.645 249.333 359.645 244.846C359.645 227.321 373.968 213.064 391.571 213.064C396.061 213.064 399.699 209.423 399.699 204.936C399.699 200.447 396.061 196.808 391.571 196.808C373.968 196.808 359.645 182.596 359.645 165.128C359.645 160.638 356.007 157 351.517 157C347.028 157 343.39 160.638 343.39 165.128C343.39 182.653 329.067 196.91 311.464 196.91C306.974 196.91 303.336 200.548 303.336 205.038C303.336 209.527 306.974 213.165 311.464 213.165Z" fill="#FF4F4F"/>
<path d="M380.595 317.211C364.102 317.211 348.613 310.849 336.976 299.294C325.344 287.746 318.939 272.365 318.939 255.985C318.939 251.496 315.298 247.857 310.811 247.857C306.322 247.857 302.684 251.496 302.684 255.985C302.684 272.365 296.277 287.746 284.644 299.294C273.007 310.849 257.518 317.211 241.026 317.211C236.537 317.211 232.898 320.849 232.898 325.339C232.898 329.828 236.537 333.466 241.026 333.466C275.022 333.466 302.684 361.013 302.684 394.872C302.684 399.361 306.322 403 310.811 403C315.298 403 318.939 399.361 318.939 394.872C318.939 361.013 346.598 333.466 380.595 333.466C385.084 333.466 388.722 329.828 388.722 325.339C388.722 320.849 385.084 317.211 380.595 317.211Z" fill="#FF4F4F"/>
<path d="M250.484 538.393H373.829V608.876H250.484V538.393Z" fill="#50585E"/>
<path d="M461.934 469.496V520.771H585.279V450.287H552.152L461.934 469.496Z" fill="#50585E"/>
<path d="M368.542 450.287H320.967V520.771H444.312V473.196L388.101 485.176C386.71 485.453 385.294 485.601 383.871 485.617C376.69 485.535 370.07 481.726 366.386 475.562C362.702 469.398 362.483 461.761 365.809 455.398L368.542 450.287Z" fill="#50585E"/>
<path d="M197.622 485.531H180V520.771H303.345V450.287H180V467.909H197.622C202.487 467.909 206.433 471.854 206.433 476.72C206.433 481.585 202.487 485.531 197.622 485.531ZM232.862 467.909H268.105C272.971 467.909 276.912 471.854 276.912 476.72C276.912 481.585 272.971 485.531 268.105 485.531H232.862C227.996 485.531 224.051 481.585 224.051 476.72C224.051 471.854 227.996 467.909 232.862 467.909Z" fill="#50585E"/>
<path d="M391.451 538.393H514.796V608.876H391.451V538.393Z" fill="#50585E"/>
<path d="M478.761 402.712C475.993 402.693 473.388 401.39 471.712 399.188C468.808 395.293 469.595 389.78 473.474 386.852L509.86 359.542L470.039 306.502C469.486 305.737 468.605 305.281 467.657 305.27H467.482C466.804 305.316 466.203 305.718 465.899 306.326L381.318 463.679C380.862 464.681 380.987 465.854 381.65 466.736C382.308 467.617 383.4 468.065 384.488 467.909L559.287 430.728C559.973 430.665 560.542 430.166 560.698 429.496C561.045 428.572 560.878 427.531 560.258 426.763L520.433 373.636L484.047 400.95C482.515 402.077 480.663 402.693 478.761 402.712Z" fill="#50585E"/>
<path d="M532.414 538.393H655.763V608.876H532.414V538.393Z" fill="#50585E"/>
<path d="M461.934 626.494H585.279V696.978H461.934V626.494Z" fill="#50585E"/>
<path d="M180 626.494H303.345V696.978H180V626.494Z" fill="#50585E"/>
<path d="M320.967 626.494H444.312V696.978H320.967V626.494Z" fill="#50585E"/>
<path d="M680.783 196.549C672.004 184.903 655.466 182.541 643.778 191.262L571.091 245.8C567.212 248.728 566.425 254.237 569.329 258.135L577.084 268.443L558.756 282.186C550.565 288.311 545.996 298.143 546.6 308.354L547.481 324.213C547.711 328.525 545.758 332.662 542.284 335.223L509.859 359.543L520.432 373.636L552.854 349.321C561.045 343.231 565.614 333.43 565.013 323.243L564.132 307.383C563.918 303.052 565.867 298.892 569.329 296.284L587.657 282.537L595.407 292.845C596.834 294.697 598.916 295.929 601.224 296.284C601.629 296.358 602.043 296.389 602.456 296.369C604.362 296.365 606.218 295.749 607.742 294.607L680.429 240.073C692.101 231.313 694.468 214.747 685.715 203.067L680.783 196.549ZM669.856 225.975L604.218 275.227L596.468 264.919L588.713 254.611L654.351 205.359C658.245 202.447 663.762 203.235 666.686 207.122L671.618 213.64C673.033 215.5 673.637 217.851 673.294 220.163C672.959 222.478 671.723 224.568 669.856 225.975Z" fill="#50585E"/>
</svg>
