<svg width="450" height="210" viewBox="0 0 450 210" fill="none" xmlns="http://www.w3.org/2000/svg">
<path d="M406.248 65.816C406.248 100.505 315.979 128.626 204.618 128.626C93.2567 128.626 3 100.505 3 65.816C3 31.1266 93.2693 3 204.618 3C315.966 3 406.248 31.1266 406.248 65.816Z" fill="url(#paint0_linear)" stroke="#231F20" stroke-width="4.4" stroke-miterlimit="10"/>
<path d="M203.231 11.6953C112.937 11.6953 39.7383 35.9269 39.7383 65.8091C39.7383 95.6912 112.937 119.923 203.231 119.923C219.66 119.923 235.517 119.117 250.474 117.626L309.256 24.6197C280.708 16.5655 243.69 11.6953 203.231 11.6953Z" fill="black"/>
<path d="M366.733 65.8153C366.733 49.3169 344.421 34.5489 309.259 24.6196L250.477 117.632C317.741 110.925 366.733 90.2609 366.733 65.8153Z" fill="#FE0000"/>
<path d="M91.8739 42.9688V53.1874H85.2293V86.0647H76.3634V53.1874H69.7188V42.9688H91.8739Z" fill="black" stroke="black" stroke-width="6"/>
<path d="M101.089 79.9108L99.4467 86.0647H90.0586L102.461 42.9688H110.433L122.841 86.0647H113.447L111.874 79.9108H101.089ZM109.527 70.6737L106.601 59.2218L103.556 70.6737H109.527Z" fill="black" stroke="black" stroke-width="6"/>
<path d="M125.895 42.9688H140.738C144.933 42.9688 147.842 44.3635 149.465 47.1531C150.589 49.2305 151.138 51.5697 151.057 53.9299C151.057 57.6004 149.95 60.39 147.735 62.2987V62.4245C150.848 64.2115 152.406 67.6178 152.41 72.6432V73.3857C152.41 79.0697 150.342 83.0549 146.206 85.3411C145.222 85.8091 144.149 86.0602 143.06 86.0773H125.895V42.9688ZM134.465 52.08V59.8384H140.335C142.08 59.8384 142.953 58.4226 142.953 55.5911C142.953 53.6216 142.21 52.5016 140.738 52.231C140.214 52.1142 139.677 52.0634 139.14 52.08H134.465ZM134.465 68.44V76.5381H140.977C142.311 76.5381 143.213 75.7264 143.683 74.103C143.815 73.4332 143.889 72.7532 143.903 72.0706C143.903 69.646 142.766 68.4358 140.493 68.44H134.465Z" fill="black" stroke="black" stroke-width="6"/>
<path d="M165.255 42.9688V75.4748H178.815V86.0647H156.66V42.9688H165.255Z" fill="black" stroke="black" stroke-width="6"/>
<path d="M192.96 79.9108L191.318 86.0647H181.93L194.332 42.9688H202.304L214.713 86.0647H205.318L203.745 79.9108H192.96ZM201.398 70.6737L198.472 59.2218L195.42 70.6737H201.398Z" fill="black" stroke="black" stroke-width="6"/>
<path d="M227.032 73.6311H226.365V86.0647H217.77V42.9688H232.078C237.146 42.9688 240.573 45.02 242.36 49.1226C243.788 51.8113 244.491 54.8258 244.399 57.8689V58.6051C244.399 65.5854 241.733 70.2857 236.401 72.7061C240.655 80.2988 243.526 84.7517 245.015 86.0647H234.608C233.173 84.7936 230.648 80.6491 227.032 73.6311ZM226.365 53.0679V63.4061H230.398C233.173 63.4061 234.765 62.9594 235.18 62.0533C235.657 61.011 235.9 59.877 235.891 58.731C235.891 54.9556 234.148 53.0679 230.662 53.0679H226.365Z" fill="black" stroke="black" stroke-width="6"/>
<path d="M264.643 86.6812C260.058 86.6812 256.142 84.4852 252.895 80.0932C249.648 75.7012 248.027 70.4073 248.031 64.2114C248.031 58.0156 249.653 52.7196 252.895 48.3234C256.138 43.9272 260.054 41.7312 264.643 41.7354C269.257 41.7354 273.175 43.9314 276.397 48.3234C279.619 52.7154 281.24 58.0114 281.261 64.2114C281.261 70.4073 279.64 75.7012 276.397 80.0932C273.154 84.4852 269.236 86.6812 264.643 86.6812ZM256.803 64.029V64.1548C256.803 68.1567 258.044 71.3993 260.528 73.8827C261.554 74.8703 262.911 75.4401 264.335 75.4809H265.046C268.28 75.4809 270.642 72.9368 272.131 67.8484C272.353 66.6696 272.473 65.4738 272.489 64.2744V63.6451C272.489 59.3076 270.981 55.9413 267.965 53.546C266.955 52.8305 265.749 52.4438 264.511 52.4386C261.44 52.4386 259.133 54.536 257.589 58.7309C257.027 60.4366 256.767 62.2275 256.822 64.0227L256.803 64.029Z" fill="black" stroke="black" stroke-width="6"/>
<path d="M308.783 69.1324H317.863C316.978 74.9414 313.991 80.2233 309.469 83.9759C307.247 85.7298 304.498 86.6831 301.667 86.6816C296.662 86.6816 292.322 83.7683 288.648 77.9416C286.277 73.7344 285.053 68.978 285.099 64.1489C285.099 56.2458 287.639 49.9241 292.719 45.1839C295.217 42.9082 298.47 41.6374 301.849 41.6162C306.279 41.6162 310.325 43.9968 313.987 48.758C316.141 52.1369 317.518 55.9514 318.02 59.9268H309.11C308.511 57.4124 307.076 55.1761 305.039 53.5842C304.026 52.8693 302.818 52.4827 301.578 52.4767C298.508 52.4767 296.201 54.5741 294.657 58.769C294.087 60.4736 293.817 62.264 293.858 64.0608V64.1867C293.858 68.1886 295.099 71.4312 297.583 73.9146C298.61 74.9012 299.966 75.4708 301.39 75.5128H302.101C305.062 75.4876 307.29 73.3608 308.783 69.1324Z" fill="black" stroke="black" stroke-width="6"/>
<path d="M328.292 79.9108L326.656 86.0647H317.262L329.67 42.9688H337.63L350.032 86.0647H340.656L339.083 79.9108H328.292ZM336.736 70.6737L333.81 59.2218L330.752 70.6737H336.736Z" fill="black" stroke="black" stroke-width="6"/>
<path d="M232.028 99.9269H242.435L241.554 105.722C243.315 103.564 245.422 101.714 247.79 100.248C249.687 99.1582 251.838 98.5895 254.026 98.5992C258.284 98.5992 261.707 100.636 264.295 104.709C266.883 108.782 268.179 114.865 268.183 122.957C268.183 133.129 265.952 141.729 261.488 148.755C257.663 154.745 253.134 157.741 247.903 157.741C242.526 157.741 238.459 154.712 235.703 148.654L231.298 177.945H220.324L232.028 99.9269ZM238.647 132.288C238.647 136.68 239.419 140.091 240.963 142.519C242.507 144.948 244.323 146.163 246.412 146.163C248.224 146.163 249.971 145.25 251.654 143.426C253.336 141.601 254.728 138.576 255.832 134.352C256.885 130.512 257.443 126.554 257.493 122.573C257.493 118.378 256.767 115.144 255.316 112.87C253.864 110.597 252.014 109.472 249.766 109.497C247.668 109.497 245.762 110.534 244.046 112.606C242.33 114.678 240.999 117.726 240.051 121.749C239.186 125.198 238.716 128.733 238.647 132.288V132.288Z" fill="white" stroke="white" stroke-width="13.21"/>
<path d="M282.75 99.927H293.006L291.358 110.894C295.184 102.71 299.328 98.6182 303.791 98.6182C305.608 98.6893 307.369 99.2597 308.882 100.267L304.672 112.757C303.696 112.267 302.619 112.013 301.526 112.014C299.639 112.014 297.719 113.007 295.769 114.991C293.653 117.253 292.088 119.972 291.194 122.938C290.099 126.252 289.015 131.506 287.941 138.7L285.267 156.407H274.262L282.75 99.927Z" fill="white" stroke="white" stroke-width="13.21"/>
<path d="M348.052 132.917H320.51C320.51 133.547 320.472 133.981 320.472 134.295C320.472 138.071 321.242 141.101 322.782 143.388C324.321 145.674 326.209 146.825 328.445 146.842C332.094 146.842 334.938 144.22 336.977 138.977L346.812 141.261C344.899 146.752 342.342 150.873 339.142 153.625C336.18 156.277 332.344 157.742 328.369 157.74C322.916 157.74 318.478 155.339 315.055 150.536C311.632 145.733 309.929 139.371 309.945 131.451C309.945 123.724 311.487 116.849 314.57 110.825C318.765 102.67 324.772 98.5949 332.591 98.5991C337.562 98.5991 341.516 100.734 344.452 105.005C347.389 109.275 348.857 115.255 348.857 122.944C348.873 126.285 348.604 129.622 348.052 132.917V132.917ZM338.796 123.611C338.796 122.938 338.833 122.422 338.833 122.069C338.833 117.875 338.158 114.728 336.807 112.631C335.457 110.534 333.644 109.485 331.371 109.485C329.105 109.485 327.067 110.668 325.273 113.046C323.48 115.425 322.253 118.93 321.618 123.573L338.796 123.611Z" fill="white" stroke="white" stroke-width="13.21"/>
<path d="M353.785 140.6L364.419 138.259C365.363 141.38 366.535 143.587 367.937 144.879C369.338 146.171 371.25 146.817 373.675 146.817C374.784 146.866 375.892 146.684 376.927 146.281C377.961 145.878 378.901 145.263 379.684 144.476C380.194 143.97 380.596 143.365 380.865 142.699C381.134 142.033 381.266 141.319 381.251 140.6C381.264 139.618 380.983 138.654 380.446 137.832C379.886 137.058 378.369 136.095 375.896 134.962C369.26 131.921 365.153 129.511 363.576 127.732C361.101 124.972 359.864 121.356 359.864 116.885C359.76 112.748 361.025 108.694 363.463 105.351C366.819 100.845 371.779 98.5949 378.344 98.5991C383.571 98.5991 387.524 99.9268 390.205 102.582C392.885 105.237 394.58 108.847 395.289 113.411L385.152 115.853C384.8 113.885 383.74 112.114 382.171 110.875C380.603 109.635 378.635 109.013 376.639 109.126C374.348 109.126 372.694 109.655 371.687 110.718C371.206 111.2 370.826 111.772 370.566 112.402C370.307 113.031 370.175 113.706 370.177 114.386C370.16 115.048 370.288 115.705 370.552 116.311C370.817 116.918 371.21 117.459 371.706 117.898C372.339 118.464 374.392 119.456 377.866 120.874C383.235 123.03 386.824 125.157 388.632 127.254C391.187 130.199 392.551 133.991 392.458 137.888C392.548 142.954 390.825 147.886 387.6 151.794C384.357 155.729 379.793 157.694 373.908 157.69C368.023 157.686 363.479 156.197 360.279 153.223C357.099 150.227 354.935 146.02 353.785 140.6Z" fill="white" stroke="white" stroke-width="13.21"/>
<path d="M400.496 140.6L411.13 138.259C412.074 141.38 413.246 143.587 414.647 144.879C416.049 146.171 417.961 146.817 420.386 146.817C421.495 146.866 422.603 146.684 423.638 146.281C424.672 145.878 425.612 145.263 426.395 144.476C426.905 143.97 427.307 143.365 427.576 142.699C427.845 142.033 427.977 141.319 427.962 140.6C427.975 139.618 427.694 138.654 427.157 137.832C426.597 137.058 425.08 136.095 422.607 134.962C415.975 131.917 411.868 129.507 410.287 127.732C407.812 124.972 406.574 121.356 406.574 116.885C406.471 112.748 407.736 108.694 410.174 105.351C413.53 100.845 418.49 98.5949 425.055 98.5991C430.282 98.5991 434.235 99.9268 436.916 102.582C439.596 105.237 441.291 108.847 442 113.411L431.863 115.853C431.505 113.894 430.444 112.133 428.88 110.901C427.316 109.668 425.357 109.048 423.369 109.158C421.078 109.158 419.423 109.686 418.417 110.75C417.936 111.232 417.555 111.804 417.296 112.433C417.037 113.063 416.905 113.737 416.906 114.418C416.89 115.079 417.018 115.736 417.282 116.343C417.546 116.949 417.94 117.491 418.435 117.929C419.069 118.495 421.122 119.487 424.596 120.905C429.961 123.04 433.543 125.157 435.343 127.254C437.898 130.199 439.262 133.991 439.169 137.888C439.259 142.954 437.536 147.886 434.311 151.794C431.068 155.729 426.504 157.694 420.619 157.69C414.733 157.686 410.199 156.188 407.015 153.197C403.818 150.219 401.645 146.02 400.496 140.6Z" fill="white" stroke="white" stroke-width="13.21"/>
<path d="M161.365 132.918H133.823C133.823 133.547 133.786 133.981 133.786 134.296C133.786 138.071 134.558 141.102 136.101 143.388C137.645 145.674 139.533 146.826 141.764 146.842C145.41 146.842 148.252 144.221 150.29 138.977L160.125 141.261C158.212 146.752 155.656 150.874 152.455 153.625C149.494 156.278 145.658 157.743 141.683 157.741C136.229 157.741 131.793 155.339 128.374 150.536C124.956 145.733 123.246 139.38 123.246 131.477C123.246 123.75 124.79 116.874 127.877 110.85C132.072 102.696 138.077 98.6203 145.892 98.6245C150.871 98.6245 154.825 100.76 157.753 105.03C160.681 109.3 162.149 115.28 162.158 122.969C162.18 126.302 161.914 129.63 161.365 132.918V132.918ZM152.109 123.611C152.109 122.938 152.147 122.422 152.147 122.07C152.147 117.875 151.471 114.729 150.12 112.631C148.77 110.534 146.96 109.485 144.69 109.485C142.417 109.485 140.382 110.672 138.587 113.046C136.791 115.421 135.573 118.93 134.931 123.573L152.109 123.611Z" fill="white" stroke="white" stroke-width="13.21"/>
<path d="M161.365 132.918H133.823C133.823 133.547 133.786 133.981 133.786 134.296C133.786 138.071 134.558 141.102 136.101 143.388C137.645 145.674 139.533 146.826 141.764 146.842C145.41 146.842 148.252 144.221 150.29 138.977L160.125 141.261C158.212 146.752 155.656 150.874 152.455 153.625C149.494 156.278 145.658 157.743 141.683 157.741C136.229 157.741 131.793 155.339 128.374 150.536C124.956 145.733 123.246 139.38 123.246 131.477C123.246 123.75 124.79 116.874 127.877 110.85C132.072 102.696 138.077 98.6203 145.892 98.6245C150.871 98.6245 154.825 100.76 157.753 105.03C160.681 109.3 162.149 115.28 162.158 122.969C162.18 126.302 161.914 129.63 161.365 132.918V132.918ZM152.109 123.611C152.109 122.938 152.147 122.422 152.147 122.07C152.147 117.875 151.471 114.729 150.12 112.631C148.77 110.534 146.96 109.485 144.69 109.485C142.417 109.485 140.382 110.672 138.587 113.046C136.791 115.421 135.573 118.93 134.931 123.573L152.109 123.611Z" fill="black"/>
<path d="M162.434 99.4102H188.408L194.82 114.996L200.71 99.4102H227.03L212.483 128.506L230.321 170.249H203.994L197.589 153.618L177.151 202.805H173.168L180.788 183.066L179.234 182.714L169.531 202.805H164.856L175.075 178.215L172.999 177.869L161.043 202.805H157.06L170.054 174.232H167.279L153.423 202.805H148.578L179.058 136.648L162.434 99.4102Z" fill="white" stroke="white" stroke-width="13.21"/>
<path d="M232.028 99.9269H242.435L241.554 105.722C243.315 103.564 245.422 101.714 247.79 100.248C249.687 99.1582 251.838 98.5895 254.026 98.5992C258.284 98.5992 261.707 100.636 264.295 104.709C266.883 108.782 268.179 114.865 268.183 122.957C268.183 133.129 265.952 141.729 261.488 148.755C257.663 154.745 253.134 157.741 247.903 157.741C242.526 157.741 238.459 154.712 235.703 148.654L231.298 177.945H220.324L232.028 99.9269ZM238.647 132.288C238.647 136.68 239.419 140.091 240.963 142.519C242.507 144.948 244.323 146.163 246.412 146.163C248.224 146.163 249.971 145.25 251.654 143.426C253.336 141.601 254.728 138.576 255.832 134.352C256.885 130.512 257.443 126.554 257.493 122.573C257.493 118.378 256.767 115.144 255.316 112.87C253.864 110.597 252.014 109.472 249.766 109.497C247.668 109.497 245.762 110.534 244.046 112.606C242.33 114.678 240.999 117.726 240.051 121.749C239.186 125.198 238.716 128.733 238.647 132.288V132.288Z" fill="black"/>
<path d="M282.75 99.927H293.006L291.358 110.894C295.184 102.71 299.328 98.6182 303.791 98.6182C305.608 98.6893 307.369 99.2597 308.882 100.267L304.672 112.757C303.696 112.267 302.619 112.013 301.526 112.014C299.639 112.014 297.719 113.007 295.769 114.991C293.653 117.253 292.088 119.972 291.194 122.938C290.099 126.252 289.015 131.506 287.941 138.7L285.267 156.407H274.262L282.75 99.927Z" fill="black"/>
<path d="M348.052 132.917H320.51C320.51 133.547 320.472 133.981 320.472 134.295C320.472 138.071 321.242 141.101 322.782 143.388C324.321 145.674 326.209 146.825 328.445 146.842C332.094 146.842 334.938 144.22 336.977 138.977L346.812 141.261C344.899 146.752 342.342 150.873 339.142 153.625C336.18 156.277 332.344 157.742 328.369 157.74C322.916 157.74 318.478 155.339 315.055 150.536C311.632 145.733 309.929 139.371 309.945 131.451C309.945 123.724 311.487 116.849 314.57 110.825C318.765 102.67 324.772 98.5949 332.591 98.5991C337.562 98.5991 341.516 100.734 344.452 105.005C347.389 109.275 348.857 115.255 348.857 122.944C348.873 126.285 348.604 129.622 348.052 132.917V132.917ZM338.796 123.611C338.796 122.938 338.833 122.422 338.833 122.069C338.833 117.875 338.158 114.728 336.807 112.631C335.457 110.534 333.644 109.485 331.371 109.485C329.105 109.485 327.067 110.668 325.273 113.046C323.48 115.425 322.253 118.93 321.618 123.573L338.796 123.611Z" fill="black"/>
<path d="M353.785 140.6L364.419 138.259C365.363 141.38 366.535 143.587 367.937 144.879C369.338 146.171 371.25 146.817 373.675 146.817C374.784 146.866 375.892 146.684 376.927 146.281C377.961 145.878 378.901 145.263 379.684 144.476C380.194 143.97 380.596 143.365 380.865 142.699C381.134 142.033 381.266 141.319 381.251 140.6C381.264 139.618 380.983 138.654 380.446 137.832C379.886 137.058 378.369 136.095 375.896 134.962C369.26 131.921 365.153 129.511 363.576 127.732C361.101 124.972 359.864 121.356 359.864 116.885C359.76 112.748 361.025 108.694 363.463 105.351C366.819 100.845 371.779 98.5949 378.344 98.5991C383.571 98.5991 387.524 99.9268 390.205 102.582C392.885 105.237 394.58 108.847 395.289 113.411L385.152 115.853C384.8 113.885 383.74 112.114 382.171 110.875C380.603 109.635 378.635 109.013 376.639 109.126C374.348 109.126 372.694 109.655 371.687 110.718C371.206 111.2 370.826 111.772 370.566 112.402C370.307 113.031 370.175 113.706 370.177 114.386C370.16 115.048 370.288 115.705 370.552 116.311C370.817 116.918 371.21 117.459 371.706 117.898C372.339 118.464 374.392 119.456 377.866 120.874C383.235 123.03 386.824 125.157 388.632 127.254C391.187 130.199 392.551 133.991 392.458 137.888C392.548 142.954 390.825 147.886 387.6 151.794C384.357 155.729 379.793 157.694 373.908 157.69C368.023 157.686 363.479 156.197 360.279 153.223C357.099 150.227 354.935 146.02 353.785 140.6Z" fill="black"/>
<path d="M400.496 140.6L411.13 138.259C412.074 141.38 413.246 143.587 414.647 144.879C416.049 146.171 417.961 146.817 420.386 146.817C421.495 146.866 422.603 146.684 423.638 146.281C424.672 145.878 425.612 145.263 426.395 144.476C426.905 143.97 427.307 143.365 427.576 142.699C427.845 142.033 427.977 141.319 427.962 140.6C427.975 139.618 427.694 138.654 427.157 137.832C426.597 137.058 425.08 136.095 422.607 134.962C415.975 131.917 411.868 129.507 410.287 127.732C407.812 124.972 406.574 121.356 406.574 116.885C406.471 112.748 407.736 108.694 410.174 105.351C413.53 100.845 418.49 98.5949 425.055 98.5991C430.282 98.5991 434.235 99.9268 436.916 102.582C439.596 105.237 441.291 108.847 442 113.411L431.863 115.853C431.505 113.894 430.444 112.133 428.88 110.901C427.316 109.668 425.357 109.048 423.369 109.158C421.078 109.158 419.423 109.686 418.417 110.75C417.936 111.232 417.555 111.804 417.296 112.433C417.037 113.063 416.905 113.737 416.906 114.418C416.89 115.079 417.018 115.736 417.282 116.343C417.546 116.949 417.94 117.491 418.435 117.929C419.069 118.495 421.122 119.487 424.596 120.905C429.961 123.04 433.543 125.157 435.343 127.254C437.898 130.199 439.262 133.991 439.169 137.888C439.259 142.954 437.536 147.886 434.311 151.794C431.068 155.729 426.504 157.694 420.619 157.69C414.733 157.686 410.199 156.188 407.015 153.197C403.818 150.219 401.645 146.02 400.496 140.6Z" fill="black"/>
<path d="M162.439 99.4102H188.419L194.8 115.002L200.689 99.4102H227.016L212.494 128.512L230.332 170.249H204.005L197.594 153.625L177.181 202.811H173.198L181.844 182.676C181.844 182.676 181.573 182.355 180.586 182.355C180.017 182.352 179.455 182.479 178.943 182.726L169.543 202.786H164.861L176.005 177.812C176.005 177.812 175.929 177.46 174.709 177.46C174.114 177.409 173.519 177.543 173.003 177.844L161.048 202.786H157.046L170.361 174.207C170.361 174.207 170.26 173.779 169.02 173.779C168.404 173.729 167.789 173.879 167.265 174.207L153.422 202.786H148.57L179.069 136.648L162.439 99.4102Z" fill="#FE0000"/>
<path d="M91.8739 42.9688V53.1874H85.2293V86.0647H76.3634V53.1874H69.7188V42.9688H91.8739Z" fill="white"/>
<path d="M101.089 79.9108L99.4467 86.0647H90.0586L102.461 42.9688H110.433L122.841 86.0647H113.447L111.874 79.9108H101.089ZM109.527 70.6737L106.601 59.2218L103.556 70.6737H109.527Z" fill="white"/>
<path d="M125.895 42.9688H140.738C144.933 42.9688 147.842 44.3635 149.465 47.1531C150.589 49.2305 151.138 51.5697 151.057 53.9299C151.057 57.6004 149.95 60.39 147.735 62.2987V62.4245C150.848 64.2115 152.406 67.6178 152.41 72.6432V73.3857C152.41 79.0697 150.342 83.0549 146.206 85.3411C145.222 85.8091 144.149 86.0602 143.06 86.0773H125.895V42.9688ZM134.465 52.08V59.8384H140.335C142.08 59.8384 142.953 58.4226 142.953 55.5911C142.953 53.6216 142.21 52.5016 140.738 52.231C140.214 52.1142 139.677 52.0634 139.14 52.08H134.465ZM134.465 68.44V76.5381H140.977C142.311 76.5381 143.213 75.7264 143.683 74.103C143.815 73.4332 143.889 72.7532 143.903 72.0706C143.903 69.646 142.766 68.4358 140.493 68.44H134.465Z" fill="white"/>
<path d="M165.255 42.9688V75.4748H178.815V86.0647H156.66V42.9688H165.255Z" fill="white"/>
<path d="M192.96 79.9108L191.318 86.0647H181.93L194.332 42.9688H202.304L214.713 86.0647H205.318L203.745 79.9108H192.96ZM201.398 70.6737L198.472 59.2218L195.42 70.6737H201.398Z" fill="white"/>
<path d="M227.032 73.6311H226.365V86.0647H217.77V42.9688H232.078C237.146 42.9688 240.573 45.02 242.36 49.1226C243.788 51.8113 244.491 54.8258 244.399 57.8689V58.6051C244.399 65.5854 241.733 70.2857 236.401 72.7061C240.655 80.2988 243.526 84.7517 245.015 86.0647H234.608C233.173 84.7936 230.648 80.6491 227.032 73.6311ZM226.365 53.0679V63.4061H230.398C233.173 63.4061 234.765 62.9594 235.18 62.0533C235.657 61.011 235.9 59.877 235.891 58.731C235.891 54.9556 234.148 53.0679 230.662 53.0679H226.365Z" fill="white"/>
<path d="M264.643 86.6812C260.058 86.6812 256.142 84.4852 252.895 80.0932C249.648 75.7012 248.027 70.4073 248.031 64.2114C248.031 58.0156 249.653 52.7196 252.895 48.3234C256.138 43.9272 260.054 41.7312 264.643 41.7354C269.257 41.7354 273.175 43.9314 276.397 48.3234C279.619 52.7154 281.24 58.0114 281.261 64.2114C281.261 70.4073 279.64 75.7012 276.397 80.0932C273.154 84.4852 269.236 86.6812 264.643 86.6812ZM256.803 64.029V64.1548C256.803 68.1567 258.044 71.3993 260.528 73.8827C261.554 74.8703 262.911 75.4401 264.335 75.4809H265.046C268.28 75.4809 270.642 72.9368 272.131 67.8484C272.353 66.6696 272.473 65.4738 272.489 64.2744V63.6451C272.489 59.3076 270.981 55.9413 267.965 53.546C266.955 52.8305 265.749 52.4438 264.511 52.4386C261.44 52.4386 259.133 54.536 257.589 58.7309C257.027 60.4366 256.767 62.2275 256.822 64.0227L256.803 64.029Z" fill="white"/>
<path d="M308.783 69.1324H317.863C316.978 74.9414 313.991 80.2233 309.469 83.9759C307.247 85.7298 304.498 86.6831 301.667 86.6816C296.662 86.6816 292.322 83.7683 288.648 77.9416C286.277 73.7344 285.053 68.978 285.099 64.1489C285.099 56.2458 287.639 49.9241 292.719 45.1839C295.217 42.9082 298.47 41.6374 301.849 41.6162C306.279 41.6162 310.325 43.9968 313.987 48.758C316.141 52.1369 317.518 55.9514 318.02 59.9268H309.11C308.511 57.4124 307.076 55.1761 305.039 53.5842C304.026 52.8693 302.818 52.4827 301.578 52.4767C298.508 52.4767 296.201 54.5741 294.657 58.769C294.087 60.4736 293.817 62.264 293.858 64.0608V64.1867C293.858 68.1886 295.099 71.4312 297.583 73.9146C298.61 74.9012 299.966 75.4708 301.39 75.5128H302.101C305.062 75.4876 307.29 73.3608 308.783 69.1324Z" fill="white"/>
<path d="M328.292 79.9108L326.656 86.0647H317.262L329.67 42.9688H337.63L350.032 86.0647H340.656L339.083 79.9108H328.292ZM336.736 70.6737L333.81 59.2218L330.752 70.6737H336.736Z" fill="white"/>
<defs>
<linearGradient id="paint0_linear" x1="204.624" y1="128.626" x2="204.624" y2="3" gradientUnits="userSpaceOnUse">
<stop stop-color="#616161"/>
<stop offset="0.08" stop-color="#C4C6C8"/>
<stop offset="0.15" stop-color="#B0B0B0"/>
<stop offset="0.21" stop-color="#8F9194"/>
<stop offset="0.28" stop-color="#E2E3E4"/>
<stop offset="0.34" stop-color="#939598"/>
<stop offset="0.4" stop-color="#EBEBEB"/>
<stop offset="0.46" stop-color="#ADAFB2"/>
<stop offset="0.53" stop-color="#939598"/>
<stop offset="0.59" stop-color="#C4C6C8"/>
<stop offset="0.66" stop-color="#939598"/>
<stop offset="0.73" stop-color="#95979A"/>
<stop offset="0.8" stop-color="#D4D4D4"/>
<stop offset="0.87" stop-color="#C4C6C8"/>
<stop offset="0.93" stop-color="#8F8F8F"/>
<stop offset="1" stop-color="#8A8C8E"/>
</linearGradient>
</defs>
</svg>
